<svg xmlns="http://www.w3.org/2000/svg" aria-hidden="true" width="96" height="96" viewBox="0 0 24 24"><g transform="rotate(35 12 12)"><path d="M10.2 10.45c-1.4.65-2.25 1.85-2.25 3.2 0 .95.4 1.75 1.1 2.4-1.3.75-2.1 1.95-2.1 3.35 0 2.3 2.25 4.15 5.05 4.15s5.05-1.85 5.05-4.15c0-1.4-.8-2.6-2.1-3.35.7-.65 1.1-1.45 1.1-2.4 0-1.35-.85-2.55-2.25-3.2-.55-.25-.8-.85-.65-1.4h-2.3c.15.55-.1 1.15-.65 1.4Z" fill="#E4AA45" stroke="#253531" stroke-width="1.25" stroke-linejoin="round"></path><path d="m10.95 10 .25-7.25h1.6l.25 7.25Z" fill="#A87142" stroke="#253531" stroke-width="0.85" stroke-linejoin="round"></path><path d="M10.55 3.05 10.4 1.4c0-.55.45-1 1-1h1.2c.55 0 1 .45 1 1l-.15 1.65Z" fill="#E4AA45" stroke="#253531" stroke-width="0.8" stroke-linejoin="round"></path><circle cx="12" cy="16.35" r="1.55" fill="#A87142" stroke="#253531" stroke-width="0.75"></circle><circle cx="12" cy="16.35" r="0.75" fill="#253531"></circle><path d="M13.25 17.2c.9-.25 1.55-.7 2-1.4" fill="none" stroke="#D95643" stroke-width="0.9" stroke-linecap="round"></path><path d="M10.15 20.75h3.7" stroke="#A87142" stroke-width="1.05" stroke-linecap="round"></path><path d="M11.5 1.8v18.95M12 1.8v18.95M12.5 1.8v18.95" stroke="#F3E6C8" stroke-width="0.3"></path><path d="M11.15 4.25h1.7M11.1 5.7h1.8M11.05 7.15h1.9M11 8.6h2" stroke="#F3E6C8" stroke-width="0.48"></path><circle cx="10.2" cy="1.1" r="0.48" fill="#A87142" stroke="#253531" stroke-width="0.4"></circle><circle cx="13.8" cy="1.1" r="0.48" fill="#A87142" stroke="#253531" stroke-width="0.4"></circle><circle cx="10.25" cy="2.3" r="0.48" fill="#A87142" stroke="#253531" stroke-width="0.4"></circle><circle cx="13.75" cy="2.3" r="0.48" fill="#A87142" stroke="#253531" stroke-width="0.4"></circle></g></svg>
